<svg xmlns="http://www.w3.org/2000/svg" viewBox="0 0 200 200" fill="none">
  <defs>
    <linearGradient id="bg" x1="0" y1="0" x2="200" y2="200" gradientUnits="userSpaceOnUse">
      <stop offset="0%" stop-color="#e11d48"/>
      <stop offset="100%" stop-color="#9f1239"/>
    </linearGradient>
    <linearGradient id="shine" x1="0" y1="0" x2="200" y2="0" gradientUnits="userSpaceOnUse">
      <stop offset="0%" stop-color="#fff" stop-opacity="0.15"/>
      <stop offset="100%" stop-color="#fff" stop-opacity="0"/>
    </linearGradient>
  </defs>
  <rect width="200" height="200" rx="44" fill="url(#bg)"/>
  <rect width="200" height="200" rx="44" fill="url(#shine)"/>
  <!-- Document body -->
  <rect x="48" y="32" width="104" height="136" rx="8" fill="white" opacity="0.97"/>
  <!-- Folded corner -->
  <path d="M120 32 L152 64 L120 64 Z" fill="#fecdd3"/>
  <path d="M120 32 L152 64 H120 Z" fill="#fda4af"/>
  <!-- Lines of text -->
  <rect x="64" y="82" width="72" height="6" rx="3" fill="#9f1239"/>
  <rect x="64" y="98" width="56" height="5" rx="2.5" fill="#e11d48" opacity="0.5"/>
  <rect x="64" y="113" width="68" height="4" rx="2" fill="#e11d48" opacity="0.3"/>
  <rect x="64" y="124" width="52" height="4" rx="2" fill="#e11d48" opacity="0.3"/>
  <rect x="64" y="135" width="60" height="4" rx="2" fill="#e11d48" opacity="0.3"/>
  <!-- Checkmark badge -->
  <circle cx="148" cy="152" r="24" fill="#9f1239"/>
  <path d="M136 152 L145 161 L161 143" stroke="white" stroke-width="5" stroke-linecap="round" stroke-linejoin="round"/>
</svg>
